<svg xmlns="http://www.w3.org/2000/svg" viewBox="0 0 512 512">
  <defs>
    <radialGradient id="bg" cx="50%" cy="45%" r="60%">
      <stop offset="0%" stop-color="#1a0a2e"/>
      <stop offset="100%" stop-color="#05020a"/>
    </radialGradient>
    <radialGradient id="glow" cx="50%" cy="50%" r="50%">
      <stop offset="0%" stop-color="#FF1E8E" stop-opacity="0.35"/>
      <stop offset="100%" stop-color="#FF1E8E" stop-opacity="0"/>
    </radialGradient>
  </defs>
  <rect width="512" height="512" rx="96" ry="96" fill="url(#bg)"/>
  <circle cx="256" cy="260" r="180" fill="url(#glow)"/>
  <!-- Bird body -->
  <circle cx="250" cy="260" r="110" fill="#000000"/>
  <circle cx="238" cy="245" r="96" fill="#1a0a2e"/>
  <!-- Mohawk crest -->
  <path d="M 200 150 L 210 110 L 230 155 L 245 105 L 260 160 L 275 115 L 295 155 L 300 150 Z"
        fill="#FF1E8E"/>
  <!-- Wing -->
  <ellipse cx="234" cy="272" rx="44" ry="58" fill="#FF1E8E"/>
  <ellipse cx="234" cy="282" rx="30" ry="40" fill="#8B5CF6" opacity="0.7"/>
  <!-- Eye -->
  <circle cx="295" cy="230" r="22" fill="#ffffff"/>
  <circle cx="303" cy="230" r="11" fill="#FF1E8E"/>
  <rect x="306" y="222" width="4" height="10" fill="#ffffff"/>
  <!-- Beak -->
  <path d="M 345 245 L 395 260 L 345 280 Z" fill="#3B82F6"/>
  <rect x="350" y="252" width="10" height="3" fill="#ffffff" opacity="0.35"/>
  <!-- P emblem -->
  <rect x="230" y="320" width="22" height="22" fill="#FF1E8E"/>
  <rect x="243" y="328" width="5" height="5" fill="#000000"/>
  <rect x="248" y="335" width="5" height="5" fill="#000000"/>
</svg>
